<?xml version="1.0" encoding="utf-8"?>
<!-- Generator: Adobe Illustrator 25.4.1, SVG Export Plug-In . SVG Version: 6.00 Build 0)  -->
<svg version="1.1" baseProfile="tiny" id="Layer_1" xmlns="http://www.w3.org/2000/svg" xmlns:xlink="http://www.w3.org/1999/xlink"
	 x="0px" y="0px" viewBox="0 0 327 327" overflow="visible" xml:space="preserve">
<circle fill="none" stroke="#FBEC0E" stroke-width="19" stroke-miterlimit="10" cx="163.5" cy="163.5" r="154"/>
<path fill="#FDED0E" d="M221.3,118.3L221.3,118.3L221.3,118.3c0-0.2,0.1-0.4,0.1-0.5C221.4,118,221.3,118.2,221.3,118.3z"/>
<path fill="#FDED0E" d="M165.1,64.9c-31.3,0-56.7,21.2-56.7,47.4c0,2,0.1,4,0.4,5.9l0,0c2.1,14,7.6,27.1,15.7,38.8l40.5,100
	l40.5-100l0.1-0.1c8-11.7,13.5-24.7,15.6-38.6c0-0.2,0-0.3,0.1-0.5c0.2-1.8,0.4-3.6,0.4-5.5C221.8,86.1,196.4,64.9,165.1,64.9z
	 M165.1,136.6c-13.4,0-24.3-10.9-24.3-24.3c0-13.4,10.9-24.3,24.3-24.3s24.3,10.9,24.3,24.3C189.4,125.8,178.5,136.6,165.1,136.6z"
	/>
<path fill="none" d="M189.4,112.3c0,13.4-10.9,24.3-24.3,24.3s-24.3-10.9-24.3-24.3c0-13.4,10.9-24.3,24.3-24.3
	S189.4,99,189.4,112.3z"/>
<path fill="none" d="M189.4,112.3c0,13.4-10.9,24.3-24.3,24.3s-24.3-10.9-24.3-24.3c0-13.4,10.9-24.3,24.3-24.3
	S189.4,99,189.4,112.3z"/>
<path fill="none" d="M189.4,112.3c0,13.4-10.9,24.3-24.3,24.3s-24.3-10.9-24.3-24.3c0-13.4,10.9-24.3,24.3-24.3
	S189.4,99,189.4,112.3z"/>
<path fill="#FDED0E" d="M231.8,153.6L231.8,153.6z"/>
<path fill="#FDED0E" d="M245.1,125.9L245.1,125.9z"/>
<line fill="none" x1="108.9" y1="118.3" x2="108.9" y2="118.3"/>
</svg>
