<?xml version="1.0" encoding="utf-8"?>
<!-- Generator: Adobe Illustrator 25.4.1, SVG Export Plug-In . SVG Version: 6.00 Build 0)  -->
<svg version="1.1" xmlns="http://www.w3.org/2000/svg" xmlns:xlink="http://www.w3.org/1999/xlink" x="0px" y="0px"
	 viewBox="50 0 1610.78 1171.63" style="enable-background:new 0 0 1610.78 1171.63;" xml:space="preserve">
<style type="text/css">
	.st0{fill:#FEED01;}
	.st1{fill:#FEED01;stroke:#FEED01;stroke-miterlimit:10;}
	.st2{fill:none;stroke:#FEED01;stroke-miterlimit:10;}
	.st3{fill:#020202;stroke:#FEED01;stroke-miterlimit:10;}
</style>
<g id="Layer_9">
	<path class="st0" d="M971.55,865.95c-88.2,53.05-176.4,106.09-264.6,159.14c3.55,11.21,7.83,30.6,3.22,53.39
		c-10.68,52.71-59.47,76.59-65.97,79.64c0,0-71.18,42.57-125.9-23.41l91.74-46.03l9.99-58.19l-33.06-28.24l-99.46,34.49
		c0,0-6.9-100.65,70.54-112.52c10.27-3.82,26.93-8.28,47.03-5.97c47.63,5.48,74.14,44.35,78.52,51
		c89.41-43.72,178.82-87.43,268.23-131.15C958.4,847.38,964.97,856.67,971.55,865.95z"/>
</g>
<g id="scorpio">
	<path class="st1" d="M1089.28,544.01"/>
	<path class="st1" d="M1091.9,561.58c-73.08-7.58-95.86-3.52-101.86,2.32c-0.54,0.52-5.21,5.2-12.02,11.44
		c-3.49,3.2-7.65,6.9-12.47,10.95c0,0-6.22,5.23-29.81,23.57l-35.58,35.97l56.17-9.99l7.49,15.99l-41.19,39.97l67.41,6
		c33.08,13.72,66.16,27.43,99.24,41.15l-99.24-41.15l99.24,41.15c15.34-6.07,30.68-12.15,46.03-18.22
		c15.87,19.67,31.73,39.33,47.6,59c0,0,58.05,31.97,54.3-6l-29.96-57.95c-23.98,1.65-47.96,3.3-71.94,4.95
		c23.98-1.65,47.96-3.3,71.94-4.95h43.07c-1.46-20.22-5.6-47.62-16.85-77.94c-5.22-14.05-17.78-44.38-43.07-75.94
		c-10.49-13.09-20.48-23.03-28.09-29.98c-5.13-1.2-11.61-1.99-18.96-1.17c-24.83,2.77-39.85,21.84-43.55,26.85
		c3.14,12.23,6.28,24.46,9.43,36.7"/>
	<path class="st1" d="M985.62,562.3c0,0-59.84-20.07-65.7-18.31c-5.86,1.76-29.12,33.01-29.12,33.01l42.94,27.58"/>
	<path class="st1" d="M1199.75,805.71c0,0,17.16-29.98,42.29,0l9.18,80.63c0,0-24.19,16.68-30.34,0
		C1214.73,869.66,1199.75,805.71,1199.75,805.71z"/>
	<path class="st1" d="M1231.58,903.63c0,0,16.79-11.99,19.63,0s17.82,75.94,17.82,75.94S1231.58,913.62,1231.58,903.63z"/>
	<path class="st1" d="M1182.9,542.15c0,0,40.24-22.77,94.49-7.01s52.49,136.63,52.49,136.63l-33.26,13.16
		c-1.5,0.59-3,1.19-4.49,1.78c-12.5,4.95-24.99,9.89-37.49,14.84c14.58,11.68,29.16,23.35,43.74,35.03c0,0,28.01,9.7,31.5-11.79
		c-2.95-6.71-8.2-16.22-17.5-24.99c-4.89-4.62-9.19-8.67-15.75-10.51c-14.78-4.14-28.65,6.48-31.5,8.76"/>
	<path class="st1" d="M1274.65,525.94c0,0,3.74-15.99,56.17-6.34c52.43,9.64,69.28,96.27,69.28,114.26
		c0,6.99-10.45,15.78-23.24,23.93c-20.13,12.82-46.04,24.03-46.04,24.03l61.79,17.33c0,0,39.32,7.08,14.98-28.1
		c-11.5-8.46-26.71-17.39-35.32-11.56c-3.16,2.13-3.37,4.86-5.35,5.63c-5.47,2.12-19.34-12.73-56.19-87.25"/>
	<path class="st1" d="M1357.56,517.74c0,0,40.67-35.02,66.08-22c25.42,13.02,45.75,85.56,45.75,85.56s-27.11,46.5-49.14,42.78"/>
	<path class="st1" d="M1478.2,550.92l-64.99-68.94c0,0,44.94-47.96,56.17-43.96s67.16,49.96,46.69,65.95
		C1516.07,503.95,1496.38,545.92,1478.2,550.92z"/>
	<path class="st1" d="M1527.43,471.98c0,0,52.43-47.96,28.09-73.94c-24.34-25.98-35.79-27.98-68.45,0s-0.83,45.96-0.83,45.96
		L1527.43,471.98z"/>
	<path class="st1" d="M1585.48,364.07c0,0-1.74,37.46-32.7,13.73c-30.96-23.72-34.71-21.73-21.6-41.71s3.53-38.3,30.79-38.14
		C1589.22,298.12,1602.33,324.1,1585.48,364.07z"/>
	<path class="st0" d="M1574.24,212.19c46.71,24.93,33.7,43.96,33.7,43.96s7.49,49.35-33.7,34.67c0,0-35.8,0.55-22.58-39.04
		C1551.66,251.78,1548.03,198.2,1574.24,212.19z"/>
	<path class="st0" d="M1609.61,174.33c0,0,7.73,23.68-16.63,23.77c-24.36,0.1-29.59,2.21-34.47-17.83
		c-4.87-20.04-17.98-58.01,13.85-58.01S1605.66,116.49,1609.61,174.33z"/>
	<path class="st0" d="M1533.05,98.28c0,0-1.87,23.98,39.32,9.99s0-46.86,0-46.86s-9.39-26.4-39.33-4.75
		C1503.09,78.3,1533.05,98.28,1533.05,98.28z"/>
	<path class="st0" d="M1514.92,48.13l36.76-20c0,0-42.97-35.76-44.84-23.77S1506.15,63.92,1514.92,48.13z"/>
	<path class="st1" d="M1308.35,763.74c0,0-11.23-19.98,11.23-19.98s21.27,19.98,21.27,19.98l8.68,49.96c0,0-13.11,23.98-28.09-6
		C1306.48,777.73,1308.35,763.74,1308.35,763.74z"/>
	<path class="st1" d="M1333.63,833.69c0,0,9.93-11.99,20.41,0c10.48,11.99,27.33,61.95,27.33,61.95S1330.82,847.68,1333.63,833.69z"
		/>
	<path class="st1" d="M1403.85,725.77c0,0-1.87-43.96,18.72-9.99c20.6,33.97,28.32,76.6,28.32,76.6s-3.79,32.77-23.55-6.93
		L1403.85,725.77z"/>
	<path class="st1" d="M1454.41,821.59c0,0-16.26-28.18,6.85-11.04c23.11,17.14,23.11,25.13,23.11,25.13L1454.41,821.59z"/>
	<path class="st1" d="M1438.49,619.86h49.78c0,0,34.5-4.07,12.03-30.92c0,0-11.23-4.87-29.96-6.87"/>
	<path class="st1" d="M1484.37,652.97"/>
	<path class="st1" d="M1501.22,644.98c0,0-12.88-23.48,7.6-27.29c0,0,16.77-11.26,25.18,58.41
		C1542.41,745.76,1518.07,660.1,1501.22,644.98z"/>
	<path class="st1" d="M1538.29,711.03c0,0-8.99,8.75,20.97,30.73C1589.22,763.74,1538.29,711.03,1538.29,711.03z"/>
	<path class="st1" d="M872.81,568.92l32.57-38.95l-52.43-11.99c-12.37,12.61-24.74,25.23-37.11,37.84
		C834.83,560.19,853.82,564.55,872.81,568.92z"/>
	<path class="st1" d="M1493.03,66.71l-59.25,91.05l-51.46,21.6l32.34-36.12l3.33-80.08c0,0,22.44-48.72,45.01-48.22
		c22.57,0.5,32.61-13.31,32.61-13.31L1493.03,66.71z"/>
</g>
<g id="Layer_11">
	<path class="st1" d="M961.69,832.13c6.58,7.96,13.15,15.91,19.73,23.87c20.66-15.59,41.31-31.19,61.97-46.78
		c-16.13-11.06-32.27-22.13-48.4-33.19C983.88,794.73,972.79,813.43,961.69,832.13z"/>
	<polygon class="st1" points="1000.34,766.42 1051.18,800.19 1085.24,746.72 987.82,706.02 	"/>
</g>
<g id="Layer_13">
	<path class="st0" d="M439.27,512.17c0,0-60.16,62.36-76.05,66.36l-15-4.43l9.02-19.67l18.94-13.13l0.93-31.54l13.04-20.29
		c0,0,16.01-10.16,8.95-16.6c-7.06-6.44-12.71-11.28-12.71-11.28s-4.25-3.25-14.54,8.68c-10.3,11.92-11.73,11.87-11.73,11.87
		l-22.92,2.96l-13.59,26.43l-18.94,13.13l-11.3-9.68l18.09-42.43l39.94-56.98c0,0,24.84-20.6,40.54-15.37
		c0,0,33.02,1.28,45.73,12.56l116.76-18.57l97.94-11.6c9.09,4.28,21.94,10.8,36.69,19.96c10.17,6.32,17.49,11.57,23.17,15.67
		c17.05,12.29,28.14,20.29,40.03,29.15c8.43,6.28,14.47,10.92,16.36,12.36c13.47,10.25,35.55,26.49,72.72,52.13
		c-4.53,3.72-9.06,7.43-13.59,11.15c-51.93-28.2-103.87-56.4-155.8-84.6c-8.76-3.66-17.52-7.33-26.28-10.99
		c-43.17,4.35-86.34,8.7-129.52,13.05c0,0-23.18,7.57-25.41,12.49l16.24,14.88c12.08,12.23,26.6,25.47,43.77,38.67
		c18.76,14.42,36.76,25.79,52.83,34.72c18.38,8.82,36.77,17.64,55.15,26.47c30.59-5.69,52.41-10.35,67.03-13.65
		c3.2-0.72,15.4-3.49,31.8-6.94c18.01-3.79,19.44-3.85,23.63-4.64c0,0,0,0,0.01,0c3.17-0.76,7.09-1.47,7.33-1.52
		c3.89-0.82,24.98-6.75,37.03-9.18c1.04-0.21,3.63-0.72,3.95,0c0.31,0.71-1.79,2.18-3.95,3.98c0,0,0,0-7.89,7.96
		c-11.84,11.94-11.84,11.94-11.84,11.94l0,0c0,0-1.32,0-3.95,0c-7.05,0-39.46,11.94-39.46,11.94s-17.05,4.3-40.11,11.02
		c-6.82,1.99-13.73,4.04-13.73,4.04c-0.02,0.01-0.03,0.01-0.03,0.01c-4.52,1.36-10.03,3.05-16.68,5.18
		c-4.54,1.45-10.09,2.99-17.44,4.59c-10.72,2.33-21.44,4.66-32.15,6.99l-114.34-30.63c-13.44-4.91-29.57-12.24-46.95-23.39
		C464.04,534.49,450.16,522.72,439.27,512.17z"/>
	<path class="st2" d="M1004.28,593.32"/>
</g>
<g id="Layer_15">
	<path class="st0" d="M243.17,631.75c0,0-17.84-17,0.54-19.38s35.18,16.92,35.18,16.92s4.94,16.87-13.34,9.95
		c0,0-3.62,1.07-2.99,3.24c0.63,2.17,4.52,5.92-2.35,5.41c0,0-1.64,0.15-0.06,5.58s-3.32,4.01-3.32,4.01s-3.28,0.29-1.03,4.18
		c2.25,3.89-4.94,2.3-4.31,4.47c0.63,2.17,2.21,7.61-0.75,8.99c-2.97,1.38-4.61,1.52-3.66,4.79s1.6,3.57-3.01,5.1
		c-4.61,1.52,0.59,5.9,0.59,5.9s-0.38,4.49-3.97,3.7c-3.6-0.8-0.06,5.58-0.06,5.58s-1.03,4.18-4.63,3.39s1.9,6.52,0.91,6.98
		s-4.61,1.52-5.28,3.07c-0.67,1.55,1.52,11.02-2.71,8.05c0,0-1.6-3.57-1.07,7.9c0,0-1.34,3.09-3.3,2.15
		c-1.96-0.94-1.68,3.87-0.06,5.58c1.62,1.71-3.66,4.79-4.63,3.39c-0.97-1.4-2,2.78-0.06,5.58c1.94,2.8-3.64,2.93-3.64,2.93
		s-1.01,2.32,0.26,6.67c1.26,4.35-4.63,3.39-4.63,3.39s-2,2.78,0.59,5.9c2.59,3.12-3.64,2.93-3.64,2.93s-2.97,1.38,0.28,4.81
		c3.24,3.43-5.95,4.62-5.95,4.62s2.51,10.56-2.73,9.91c-5.24-0.65,2.21,7.61-4.67,7.11c0,0-4.06,2.09-3.39,5.07
		c0.68,2.98-4.25,3.42-4.25,3.42s-10.27,10.35-10.91,8.47c-0.64-1.87-0.89-8.54-0.89-8.54s-3.24-3.43,0.06-5.58
		c3.3-2.15-2.21-7.61-2.21-7.61s1.37-4.95,3.32-4.01c1.96,0.94,0.42-8.22-0.23-8.53c-0.65-0.31,2.33-3.55,3.95-1.84
		c1.62,1.71,1.34-3.09,0.08-7.44c-1.26-4.35,4.61-1.52,4.61-1.52l1.34-3.09c0,0-4.86-5.14,1.7-5.73s-0.28-4.81-0.28-4.81
		s-0.28-4.81,4.65-5.25s-0.59-5.9-0.59-5.9s0.69-3.41,4.29-2.61c3.6,0.8-0.28-4.81-0.26-6.67c0.02-1.86,4.29-2.61,4.29-2.61
		s2.31-1.69,0.06-5.58c-2.25-3.89,4.96-4.16,4.96-4.16l0.69-3.41c0,0-2.9-4.2,1.7-5.73c4.61-1.52,0.38-4.49,0.38-4.49
		s-0.3-2.95,3.97-3.7c4.27-0.75-0.26-6.67-0.26-6.67s-1.6-3.58,4.63-3.39c6.23,0.19-0.26-6.67-0.26-6.67s0.69-3.41,4.29-2.61
		c3.6,0.8-0.59-5.9-0.59-5.9s-1.94-2.8,5.28-3.07l0.69-3.41c0,0-3.89-3.74,1.7-5.73c5.59-1.98,1.68-3.87,1.68-3.87
		s-1.58-5.44,3.01-5.1s-0.59-5.9-0.59-5.9s1.37-4.95,4.63-3.39c3.26,1.57-0.26-6.67-0.26-6.67s2.33-3.55,4.29-2.61
		C242.93,638.65,243.17,631.75,243.17,631.75z"/>
	<path class="st0" d="M278.18,926.62c0,0-22.2,9.8-16.46-8.72s29.47-26.35,29.47-26.35s16.62,2.44,2.92,16.93
		c0,0-0.61,3.9,1.53,4.22c2.14,0.32,7.01-1.81,3.67,4.54c0,0-0.57,1.63,4.78,2.42c5.35,0.8,2.05,4.86,2.05,4.86
		s-1.14,3.25,3.16,2.75c4.3-0.5-0.11,5.68,2.03,6c2.14,0.32,7.49,1.12,7.42,4.52s-0.64,5.03,2.57,5.51
		c3.21,0.48,3.76-0.01,3.12,5.02c-0.64,5.03,5.33,1.93,5.33,1.93s3.71,2.26,1.5,5.35c-2.21,3.09,4.78,2.42,4.78,2.42
		s3.16,2.75,0.96,5.84c-2.21,3.09,6.42,0.96,6.4,2.09c-0.02,1.14-0.64,5.03,0.41,6.33c1.05,1.3,10.13,3.22,5.78,5.99
		c0,0-3.76,0.01,6.35,4.37c0,0,2.09,2.59,0.46,4.06c-1.64,1.47,2.62,3.24,4.78,2.42c2.16-0.82,2.57,5.51,0.96,5.84
		c-1.62,0.33,1.55,3.08,4.78,2.42c3.23-0.66,0.98,4.71,0.98,4.71s1.57,1.94,5.85,2.58c4.28,0.64,0.96,5.84,0.96,5.84
		s1.55,3.08,5.33,1.93c3.78-1.15,0.98,4.71,0.98,4.71s-0.07,3.41,4.26,1.77c4.33-1.64,1.46,7.63,1.46,7.63s10.15,2.08,7.38,6.8
		s7.49,1.12,4.14,7.46c0,0,0.08,4.76,2.93,5.37c2.85,0.62,1.14,5.49,1.14,5.49s4.56,14.17,2.68,13.98
		c-1.88-0.19-7.73-2.77-7.73-2.77s-4.33,1.64-4.78-2.42s-7.49-1.12-7.49-1.12s-3.69-3.4-2.05-4.86c1.64-1.47-6.9-3.88-7.45-3.39
		s-2.07-3.73,0.09-4.55s-2.09-2.59-6.38-3.23s0.64-5.03,0.64-5.03l-2.09-2.59c0,0-6.49,2.45-4.21-4.05c2.28-6.5-4.26-1.77-4.26-1.77
		s-4.26-1.77-2.55-6.65c1.71-4.88-5.33-1.93-5.33-1.93s-2.64-2.1-0.43-5.19c2.21-3.09-4.26-1.77-5.85-2.58
		c-1.59-0.81-0.43-5.19-0.43-5.19s-0.48-2.92-4.78-2.42c-4.3,0.5-1.48-6.49-1.48-6.49l-2.64-2.1c0,0-4.85,0.99-4.21-4.05
		c0.64-5.03-3.71-2.26-3.71-2.26s-2.66-0.97-1.5-5.35c1.16-4.39-5.85-2.58-5.85-2.58s-3.76,0.01-0.96-5.84s-5.85-2.58-5.85-2.58
		s-2.64-2.1-0.43-5.19c2.21-3.09-5.33-1.93-5.33-1.93s-3.23,0.66-0.41-6.33l-2.64-2.1c0,0-4.87,2.12-4.21-4.05
		c0.66-6.17-2.62-3.24-2.62-3.24s-5.35-0.8-3.12-5.02c2.23-4.23-5.33-1.93-5.33-1.93s-3.69-3.4-0.96-5.84s-5.85-2.58-5.85-2.58
		s-2.07-3.73-0.43-5.19S278.18,926.62,278.18,926.62z"/>
	<path class="st0" d="M395.39,687.95c0,0-23.41-5.9-8.37-17.27c15.04-11.37,38.58-2.92,38.58-2.92s12.03,12.3-7.16,15.46
		c0,0-2.69,2.76-1.14,4.35c1.55,1.59,6.67,2.91,0.41,5.94c0,0-1.37,0.96,2.49,4.93c3.87,3.97-1.08,5.2-1.08,5.2
		s-2.75,1.91,1.01,4.19s-3.29,4.51-1.74,6.1c1.55,1.59,5.41,5.56,3.44,8.27s-3.34,3.66-1.02,6.05c2.32,2.38,3.04,2.33-0.31,5.99
		c-3.34,3.66,3.21,4.87,3.21,4.87s1.72,4.13-1.8,5.25s2.49,4.93,2.49,4.93s1.01,4.19-2.51,5.31s4.64,4.76,3.98,5.67
		s-3.34,3.66-3.23,5.36s6.36,8.9,1.3,8.43c0,0-3.04-2.33,2.67,7.47c0,0,0.23,3.39-1.91,3.56c-2.15,0.16,0.29,4.24,2.49,4.93
		c2.2,0.69-1.02,6.05-2.51,5.31c-1.49-0.74-0.48,3.45,2.49,4.93s-1.86,4.4-1.86,4.4s0.17,2.54,3.27,5.72s-2.51,5.31-2.51,5.31
		s-0.48,3.45,3.21,4.87s-1.86,4.4-1.86,4.4s-1.97,2.71,2.44,4.08c4.41,1.37-3.11,7.06-3.11,7.06s7.02,7.99,2.13,10.07
		c-4.89,2.08,5.41,5.56-0.85,8.59c0,0-2.61,3.88-0.66,6.16s-2.16,5.14-2.16,5.14s-4.29,14.26-5.7,12.94
		c-1.41-1.32-4.68-7.04-4.68-7.04s-4.41-1.37-2.49-4.93c1.91-3.56-5.41-5.56-5.41-5.56s-1.06-5.04,1.08-5.2
		c2.15-0.16-3.38-7.42-4.1-7.36s0.43-4.3,2.63-3.61c2.2,0.69-0.23-3.39-3.33-6.57c-3.09-3.18,3.34-3.66,3.34-3.66l-0.23-3.39
		c0,0-6.61-2.06-1.12-5.88s-2.44-4.08-2.44-4.08s-2.44-4.08,1.68-6.95s-3.21-4.87-3.21-4.87s-0.95-3.34,2.57-4.46
		c3.52-1.12-2.44-4.08-3.27-5.72c-0.83-1.64,2.57-4.46,2.57-4.46s1.26-2.65-2.49-4.93c-3.75-2.27,2.46-6.15,2.46-6.15l-0.95-3.34
		c0,0-4.47-2.22-1.12-5.88c3.34-3.66-1.72-4.13-1.72-4.13s-1.6-2.44,1.8-5.25c3.4-2.82-3.27-5.72-3.27-5.72s-3.04-2.33,2.51-5.31
		s-3.27-5.72-3.27-5.72s-0.95-3.34,2.57-4.46c3.52-1.12-3.21-4.87-3.21-4.87s-2.98-1.48,3.23-5.36l-0.95-3.34
		c0,0-5.12-1.32-1.12-5.88c4-4.57-0.29-4.24-0.29-4.24s-3.87-3.97,0.31-5.99c4.18-2.02-3.21-4.87-3.21-4.87s-1.06-5.04,2.51-5.31
		c3.58-0.27-3.27-5.72-3.27-5.72s0.43-4.3,2.57-4.46C398.33,694.12,395.39,687.95,395.39,687.95z"/>
	<line class="st0" x1="0" y1="986.48" x2="16.78" y2="982.02"/>
	<path class="st0" d="M295.51,692.97c0,0,9.35,1.01,4.68-8.04c0,0,0.88-4.52,6.87,0c0,0,2.87-0.5,1.31-5.53
		c-1.56-5.03,5.46,1.01,5.46,1.01s5.09,2.01,5.28-2.51s4.32,0,4.32,0s2.1,6.53,6,1.51c3.9-5.03,3.9,2.01,3.9,2.01
		s2.05,5.06,4.92,3.03c2.87-2.03,4.43-0.02,3.65,4s3.12,4.02,3.12,4.02s5.46-0.28,0,4.38c-5.46,4.67,2.42,5.38,2.42,5.38
		s4.59,2.3-3.2,5.32c0,0-3.58-0.09,0.55,3.97c4.13,4.07-4.64,3.02-4.64,3.02s-5.26,0.52-3.31,3.8c1.95,3.28-1.95,4.29-3.51,2.28
		c-1.56-2.01-5.46-1.01-4.68,2.01c0.78,3.02-4.68,3.02-4.68,1.01c0-2.01-3.9-4.02-4.68,0s-7.79,1.01-6.24-1.01
		c1.56-2.01-3.12-7.04-6.24-2.01c0,0-3.9,2.01-2.34-4.02c1.56-6.03-7.02-3.02-7.02-3.02s-3.12-2.01,1.56-5.03
		c4.68-3.02-5.46-4.02-5.46-4.02s-1.78-4.55,3.4-3.78C302.14,701.52,292,693.48,295.51,692.97z"/>
	<path class="st3" d="M313.05,703.53c0,0-3.9-11.06,8.57-10.05c12.47,1.01,6.24,12.06,6.24,12.06S319.28,714.58,313.05,703.53z"/>
	<path class="st0" d="M160.27,883.48c0,0,9.61,1.21,4.8-9.64c0,0,0.9-5.42,7.06,0c0,0,2.95-0.6,1.35-6.63
		c-1.6-6.03,5.6,1.21,5.6,1.21s5.23,2.41,5.42-3.01c0.19-5.42,4.43,0,4.43,0s2.16,7.84,6.16,1.81c4-6.03,4,2.41,4,2.41
		s2.1,6.07,5.06,3.64c2.95-2.43,4.55-0.02,3.75,4.8s3.2,4.82,3.2,4.82s5.6-0.34,0,5.25c-5.6,5.6,2.49,6.45,2.49,6.45
		s4.71,2.76-3.29,6.38c0,0-3.68-0.11,0.56,4.77c4.24,4.88-4.77,3.62-4.77,3.62s-5.4,0.62-3.4,4.56c2,3.94-2,5.14-3.6,2.73
		c-1.6-2.41-5.6-1.21-4.8,2.41s-4.8,3.62-4.8,1.21c0-2.41-4-4.82-4.8,0c-0.8,4.82-8.01,1.21-6.4-1.21c1.6-2.41-3.2-8.44-6.41-2.41
		c0,0-4,2.41-2.4-4.82c1.6-7.23-7.21-3.62-7.21-3.62s-3.2-2.41,1.6-6.03s-5.6-4.82-5.6-4.82s-1.82-5.46,3.49-4.54
		C167.08,893.73,156.67,884.08,160.27,883.48z"/>
	<path class="st3" d="M178.29,896.14c0,0-4-13.26,8.81-12.05c12.81,1.21,6.4,14.47,6.4,14.47S184.69,909.4,178.29,896.14z"/>
	<path class="st0" d="M314.79,824.39c0,0,9.61,1.21,4.8-9.64c0,0,0.9-5.42,7.06,0c0,0,2.95-0.6,1.35-6.63
		c-1.6-6.03,5.6,1.21,5.6,1.21s5.23,2.41,5.42-3.01c0.19-5.42,4.43,0,4.43,0s2.16,7.84,6.16,1.81c4-6.03,4,2.41,4,2.41
		s2.1,6.07,5.06,3.64c2.95-2.43,4.55-0.02,3.75,4.8s3.2,4.82,3.2,4.82s5.6-0.34,0,5.25s2.49,6.45,2.49,6.45s4.71,2.76-3.29,6.38
		c0,0-3.68-0.11,0.56,4.77s-4.77,3.62-4.77,3.62s-5.4,0.62-3.4,4.56c2,3.94-2,5.14-3.6,2.73c-1.6-2.41-5.6-1.21-4.8,2.41
		c0.8,3.62-4.8,3.62-4.8,1.21c0-2.41-4-4.82-4.8,0s-8.01,1.21-6.4-1.21c1.6-2.41-3.2-8.44-6.4-2.41c0,0-4,2.41-2.4-4.82
		s-7.21-3.62-7.21-3.62s-3.2-2.41,1.6-6.03c4.8-3.62-5.6-4.82-5.6-4.82s-1.82-5.46,3.49-4.54C321.6,834.64,311.19,825,314.79,824.39
		z"/>
	<path class="st3" d="M332.81,837.05c0,0-4-13.26,8.81-12.05c12.81,1.21,6.4,14.47,6.4,14.47S339.21,850.31,332.81,837.05z"/>
	<path class="st0" d="M103.08,655.25c0,0,9.61,1.21,4.8-9.64c0,0,0.9-5.42,7.06,0c0,0,2.95-0.6,1.35-6.63s5.6,1.21,5.6,1.21
		s5.23,2.41,5.42-3.01c0.19-5.42,4.43,0,4.43,0s2.16,7.84,6.16,1.81s4,2.41,4,2.41s2.1,6.07,5.06,3.64c2.95-2.43,4.55-0.02,3.75,4.8
		c-0.8,4.82,3.2,4.82,3.2,4.82s5.6-0.34,0,5.25c-5.6,5.6,2.49,6.45,2.49,6.45s4.71,2.76-3.29,6.38c0,0-3.68-0.11,0.56,4.77
		c4.24,4.88-4.77,3.62-4.77,3.62s-5.4,0.62-3.4,4.56c2,3.94-2,5.14-3.6,2.73c-1.6-2.41-5.6-1.21-4.8,2.41
		c0.8,3.62-4.8,3.62-4.8,1.21c0-2.41-4-4.82-4.8,0s-8.01,1.21-6.41-1.21c1.6-2.41-3.2-8.44-6.41-2.41c0,0-4,2.41-2.4-4.82
		c1.6-7.23-7.21-3.62-7.21-3.62s-3.2-2.41,1.6-6.03c4.8-3.62-5.6-4.82-5.6-4.82s-1.82-5.46,3.49-4.54S99.48,655.86,103.08,655.25z"
		/>
	<path class="st3" d="M121.1,667.91c0,0-4-13.26,8.81-12.05c12.81,1.21,6.41,14.47,6.41,14.47S127.5,681.17,121.1,667.91z"/>
	<path class="st0" d="M469.67,773.46c0,0,9.61,1.21,4.8-9.64c0,0,0.9-5.42,7.06,0c0,0,2.95-0.6,1.35-6.63
		c-1.6-6.03,5.6,1.21,5.6,1.21s5.23,2.41,5.42-3.01c0.19-5.42,4.43,0,4.43,0s2.16,7.84,6.16,1.81c4-6.03,4,2.41,4,2.41
		s2.1,6.07,5.06,3.64s4.55-0.02,3.75,4.8c-0.8,4.82,3.2,4.82,3.2,4.82s5.6-0.34,0,5.25s2.49,6.45,2.49,6.45s4.71,2.76-3.29,6.38
		c0,0-3.68-0.11,0.56,4.77c4.24,4.88-4.77,3.62-4.77,3.62s-5.4,0.62-3.4,4.56c2,3.94-2,5.14-3.6,2.73c-1.6-2.41-5.6-1.21-4.8,2.41
		s-4.8,3.62-4.8,1.21c0-2.41-4-4.82-4.8,0c-0.8,4.82-8.01,1.21-6.4-1.21c1.6-2.41-3.2-8.44-6.4-2.41c0,0-4,2.41-2.4-4.82
		c1.6-7.23-7.21-3.62-7.21-3.62s-3.2-2.41,1.6-6.03c4.8-3.62-5.6-4.82-5.6-4.82s-1.82-5.46,3.49-4.54S466.07,774.06,469.67,773.46z"
		/>
	<path class="st3" d="M487.68,786.12c0,0-4-13.26,8.81-12.05c12.81,1.21,6.4,14.47,6.4,14.47S494.09,799.38,487.68,786.12z"/>
</g>
</svg>
