<?xml version="1.0" encoding="utf-8"?>
<!-- Generator: Adobe Illustrator 25.4.1, SVG Export Plug-In . SVG Version: 6.00 Build 0)  -->
<svg version="1.1" xmlns="http://www.w3.org/2000/svg" xmlns:xlink="http://www.w3.org/1999/xlink" x="0px" y="0px"
	 viewBox="150 0 1610.78 1171.63" style="enable-background:new 0 0 1610.78 1171.63;" xml:space="preserve">
<style type="text/css">
	.st0{fill:#FEED01;}
	.st1{fill:#FEED01;stroke:#FEED01;stroke-miterlimit:10;}
	.st2{fill:none;stroke:#FEED01;stroke-miterlimit:10;}
</style>
<g id="Layer_9">
	<path class="st0" d="M971.55,865.95c-88.2,53.05-176.4,106.09-264.6,159.14c3.55,11.21,7.83,30.6,3.22,53.39
		c-10.68,52.71-59.47,76.59-65.97,79.64c0,0-71.18,42.57-125.9-23.41l91.74-46.03l9.99-58.19l-33.06-28.24l-99.46,34.49
		c0,0-6.9-100.65,70.54-112.52c10.27-3.82,26.93-8.28,47.03-5.97c47.63,5.48,74.14,44.35,78.52,51
		c89.41-43.72,178.82-87.43,268.23-131.15C958.4,847.38,964.97,856.67,971.55,865.95z"/>
</g>
<g id="scorpio">
	<path class="st1" d="M1089.28,544.01"/>
	<path class="st1" d="M1091.9,561.58c-73.08-7.58-95.86-3.52-101.86,2.32c-0.54,0.52-5.21,5.2-12.02,11.44
		c-3.49,3.2-7.65,6.9-12.47,10.95c0,0-6.22,5.23-29.81,23.57l-35.58,35.97l56.17-9.99l7.49,15.99l-41.19,39.97l67.41,6
		c33.08,13.72,66.16,27.43,99.24,41.15l-99.24-41.15l99.24,41.15c15.34-6.07,30.68-12.15,46.03-18.22
		c15.87,19.67,31.73,39.33,47.6,59c0,0,58.05,31.97,54.3-6l-29.96-57.95c-23.98,1.65-47.96,3.3-71.94,4.95
		c23.98-1.65,47.96-3.3,71.94-4.95h43.07c-1.46-20.22-5.6-47.62-16.85-77.94c-5.22-14.05-17.78-44.38-43.07-75.94
		c-10.49-13.09-20.48-23.03-28.09-29.98c-5.13-1.2-11.61-1.99-18.96-1.17c-24.83,2.77-39.85,21.84-43.55,26.85
		c3.14,12.23,6.28,24.46,9.43,36.7"/>
	<path class="st1" d="M985.62,562.3c0,0-59.84-20.07-65.7-18.31c-5.86,1.76-29.12,33.01-29.12,33.01l42.94,27.58"/>
	<path class="st1" d="M1199.75,805.71c0,0,17.16-29.98,42.29,0l9.18,80.63c0,0-24.19,16.68-30.34,0
		C1214.73,869.66,1199.75,805.71,1199.75,805.71z"/>
	<path class="st1" d="M1231.58,903.63c0,0,16.79-11.99,19.63,0s17.82,75.94,17.82,75.94S1231.58,913.62,1231.58,903.63z"/>
	<path class="st1" d="M1182.9,542.15c0,0,40.24-22.77,94.49-7.01s52.49,136.63,52.49,136.63l-33.26,13.16
		c-1.5,0.59-3,1.19-4.49,1.78c-12.5,4.95-24.99,9.89-37.49,14.84c14.58,11.68,29.16,23.35,43.74,35.03c0,0,28.01,9.7,31.5-11.79
		c-2.95-6.71-8.2-16.22-17.5-24.99c-4.89-4.62-9.19-8.67-15.75-10.51c-14.78-4.14-28.65,6.48-31.5,8.76"/>
	<path class="st1" d="M1274.65,525.94c0,0,3.74-15.99,56.17-6.34c52.43,9.64,69.28,96.27,69.28,114.26
		c0,6.99-10.45,15.78-23.24,23.93c-20.13,12.82-46.04,24.03-46.04,24.03l61.79,17.33c0,0,39.32,7.08,14.98-28.1
		c-11.5-8.46-26.71-17.39-35.32-11.56c-3.16,2.13-3.37,4.86-5.35,5.63c-5.47,2.12-19.34-12.73-56.19-87.25"/>
	<path class="st1" d="M1357.56,517.74c0,0,40.67-35.02,66.08-22c25.42,13.02,45.75,85.56,45.75,85.56s-27.11,46.5-49.14,42.78"/>
	<path class="st1" d="M1478.2,550.92l-64.99-68.94c0,0,44.94-47.96,56.17-43.96s67.16,49.96,46.69,65.95
		C1516.07,503.95,1496.38,545.92,1478.2,550.92z"/>
	<path class="st1" d="M1527.43,471.98c0,0,52.43-47.96,28.09-73.94c-24.34-25.98-35.79-27.98-68.45,0s-0.83,45.96-0.83,45.96
		L1527.43,471.98z"/>
	<path class="st1" d="M1585.48,364.07c0,0-1.74,37.46-32.7,13.73c-30.96-23.72-34.71-21.73-21.6-41.71s3.53-38.3,30.79-38.14
		C1589.22,298.12,1602.33,324.1,1585.48,364.07z"/>
	<path class="st0" d="M1574.24,212.19c46.71,24.93,33.7,43.96,33.7,43.96s7.49,49.35-33.7,34.67c0,0-35.8,0.55-22.58-39.04
		C1551.66,251.78,1548.03,198.2,1574.24,212.19z"/>
	<path class="st0" d="M1609.61,174.33c0,0,7.73,23.68-16.63,23.77c-24.36,0.1-29.59,2.21-34.47-17.83
		c-4.87-20.04-17.98-58.01,13.85-58.01S1605.66,116.49,1609.61,174.33z"/>
	<path class="st0" d="M1533.05,98.28c0,0-1.87,23.98,39.32,9.99s0-46.86,0-46.86s-9.39-26.4-39.33-4.75
		C1503.09,78.3,1533.05,98.28,1533.05,98.28z"/>
	<path class="st0" d="M1514.92,48.13l36.76-20c0,0-42.97-35.76-44.84-23.77S1506.15,63.92,1514.92,48.13z"/>
	<path class="st1" d="M1308.35,763.74c0,0-11.23-19.98,11.23-19.98s21.27,19.98,21.27,19.98l8.68,49.96c0,0-13.11,23.98-28.09-6
		C1306.48,777.73,1308.35,763.74,1308.35,763.74z"/>
	<path class="st1" d="M1333.63,833.69c0,0,9.93-11.99,20.41,0c10.48,11.99,27.33,61.95,27.33,61.95S1330.82,847.68,1333.63,833.69z"
		/>
	<path class="st1" d="M1403.85,725.77c0,0-1.87-43.96,18.72-9.99c20.6,33.97,28.32,76.6,28.32,76.6s-3.79,32.77-23.55-6.93
		L1403.85,725.77z"/>
	<path class="st1" d="M1454.41,821.59c0,0-16.26-28.18,6.85-11.04c23.11,17.14,23.11,25.13,23.11,25.13L1454.41,821.59z"/>
	<path class="st1" d="M1438.49,619.86h49.78c0,0,34.5-4.07,12.03-30.92c0,0-11.23-4.87-29.96-6.87"/>
	<path class="st1" d="M1484.37,652.97"/>
	<path class="st1" d="M1501.22,644.98c0,0-12.88-23.48,7.6-27.29c0,0,16.77-11.26,25.18,58.41
		C1542.41,745.76,1518.07,660.1,1501.22,644.98z"/>
	<path class="st1" d="M1538.29,711.03c0,0-8.99,8.75,20.97,30.73C1589.22,763.74,1538.29,711.03,1538.29,711.03z"/>
	<path class="st1" d="M872.81,568.92l32.57-38.95l-52.43-11.99c-12.37,12.61-24.74,25.23-37.11,37.84
		C834.83,560.19,853.82,564.55,872.81,568.92z"/>
	<path class="st1" d="M1493.03,66.71l-59.25,91.05l-51.46,21.6l32.34-36.12l3.33-80.08c0,0,22.44-48.72,45.01-48.22
		c22.57,0.5,32.61-13.31,32.61-13.31L1493.03,66.71z"/>
</g>
<g id="Layer_11">
	<path class="st1" d="M961.69,832.13c6.58,7.96,13.15,15.91,19.73,23.87c20.66-15.59,41.31-31.19,61.97-46.78
		c-16.13-11.06-32.27-22.13-48.4-33.19C983.88,794.73,972.79,813.43,961.69,832.13z"/>
	<polygon class="st1" points="1000.34,766.42 1051.18,800.19 1085.24,746.72 987.82,706.02 	"/>
</g>
<g id="Layer_13">
	<path class="st0" d="M439.27,512.17c0,0-60.16,62.36-76.05,66.36l-15-4.43l9.02-19.67l18.94-13.13l0.93-31.54l13.04-20.29
		c0,0,16.01-10.16,8.95-16.6c-7.06-6.44-12.71-11.28-12.71-11.28s-4.25-3.25-14.54,8.68c-10.3,11.92-11.73,11.87-11.73,11.87
		l-22.92,2.96l-13.59,26.43l-18.94,13.13l-11.3-9.68l18.09-42.43l39.94-56.98c0,0,24.84-20.6,40.54-15.37
		c0,0,33.02,1.28,45.73,12.56l116.76-18.57l97.94-11.6c9.09,4.28,21.94,10.8,36.69,19.96c10.17,6.32,17.49,11.57,23.17,15.67
		c17.05,12.29,28.14,20.29,40.03,29.15c8.43,6.28,14.47,10.92,16.36,12.36c13.47,10.25,35.55,26.49,72.72,52.13
		c-4.53,3.72-9.06,7.43-13.59,11.15c-51.93-28.2-103.87-56.4-155.8-84.6c-8.76-3.66-17.52-7.33-26.28-10.99
		c-43.17,4.35-86.34,8.7-129.52,13.05c0,0-23.18,7.57-25.41,12.49l16.24,14.88c12.08,12.23,26.6,25.47,43.77,38.67
		c18.76,14.42,36.76,25.79,52.83,34.72c18.38,8.82,36.77,17.64,55.15,26.47c30.59-5.69,52.41-10.35,67.03-13.65
		c3.2-0.72,15.4-3.49,31.8-6.94c18.01-3.79,19.44-3.85,23.63-4.64c0,0,0,0,0.01,0c3.17-0.76,7.09-1.47,7.33-1.52
		c3.89-0.82,24.98-6.75,37.03-9.18c1.04-0.21,3.63-0.72,3.95,0c0.31,0.71-1.79,2.18-3.95,3.98c0,0,0,0-7.89,7.96
		c-11.84,11.94-11.84,11.94-11.84,11.94l0,0c0,0-1.32,0-3.95,0c-7.05,0-39.46,11.94-39.46,11.94s-17.05,4.3-40.11,11.02
		c-6.82,1.99-13.73,4.04-13.73,4.04c-0.02,0.01-0.03,0.01-0.03,0.01c-4.52,1.36-10.03,3.05-16.68,5.18
		c-4.54,1.45-10.09,2.99-17.44,4.59c-10.72,2.33-21.44,4.66-32.15,6.99l-114.34-30.63c-13.44-4.91-29.57-12.24-46.95-23.39
		C464.04,534.49,450.16,522.72,439.27,512.17z"/>
	<path class="st2" d="M1004.28,593.32"/>
</g>
<g id="Layer_15">
	<line class="st0" x1="0" y1="986.48" x2="16.78" y2="982.02"/>
</g>
</svg>
